<mxfile host="app.diagrams.net" modified="2020-12-01T14:09:10.281Z" agent="5.0 (Windows)" etag="9SSyqi8DB5wdy27fms9V" version="13.10.2" type="github">
  <diagram name="Page-1" id="e7e014a7-5840-1c2e-5031-d8a46d1fe8dd">
    <mxGraphModel dx="1038" dy="547" grid="1" gridSize="10" guides="1" tooltips="1" connect="1" arrows="1" fold="1" page="1" pageScale="1" pageWidth="1169" pageHeight="826" background="#ffffff" math="0" shadow="0">
      <root>
        <mxCell id="0" />
        <mxCell id="1" parent="0" />
        <mxCell id="Ti_cdP-LwR2GLxK3Q5Qu-41" value="" style="rounded=0;whiteSpace=wrap;html=1;" parent="1" vertex="1">
          <mxGeometry x="290" y="150" width="540" height="510" as="geometry" />
        </mxCell>
        <mxCell id="Ti_cdP-LwR2GLxK3Q5Qu-43" value="customer" style="shape=umlActor;verticalLabelPosition=bottom;verticalAlign=top;html=1;outlineConnect=0;" parent="1" vertex="1">
          <mxGeometry x="230" y="500" width="30" height="60" as="geometry" />
        </mxCell>
        <mxCell id="rXxGUh9YkXs_mze31AUG-1" value="ثبت نام" style="ellipse;whiteSpace=wrap;html=1;fillColor=#f8cecc;strokeColor=#b85450;" parent="1" vertex="1">
          <mxGeometry x="295" y="160" width="90" height="63" as="geometry" />
        </mxCell>
        <mxCell id="Ti_cdP-LwR2GLxK3Q5Qu-42" value="seller" style="shape=umlActor;verticalLabelPosition=bottom;verticalAlign=top;html=1;outlineConnect=0;" parent="1" vertex="1">
          <mxGeometry x="230" y="300" width="30" height="60" as="geometry" />
        </mxCell>
        <mxCell id="rXxGUh9YkXs_mze31AUG-5" value="admin" style="shape=umlActor;verticalLabelPosition=bottom;verticalAlign=top;html=1;outlineConnect=0;" parent="1" vertex="1">
          <mxGeometry x="860" y="340" width="30" height="60" as="geometry" />
        </mxCell>
        <mxCell id="Jm9gUiOZweeL1IYtcXkK-2" value="ورود به نرم افزار" style="ellipse;whiteSpace=wrap;html=1;fillColor=#f8cecc;strokeColor=#b85450;" parent="1" vertex="1">
          <mxGeometry x="290" y="223" width="100" height="60" as="geometry" />
        </mxCell>
        <mxCell id="oFaBCXIpXnut_KhmdDa9-1" value="افزودن به لیست علاقه مندی" style="ellipse;whiteSpace=wrap;html=1;fillColor=#f8cecc;strokeColor=#b85450;" vertex="1" parent="1">
          <mxGeometry x="300" y="283" width="95" height="57" as="geometry" />
        </mxCell>
        <mxCell id="oFaBCXIpXnut_KhmdDa9-2" value="&lt;br&gt;حذف از لیست علاقه مندی" style="ellipse;whiteSpace=wrap;html=1;fillColor=#f8cecc;strokeColor=#b85450;" vertex="1" parent="1">
          <mxGeometry x="287.5" y="340" width="105" height="58" as="geometry" />
        </mxCell>
        <mxCell id="oFaBCXIpXnut_KhmdDa9-3" value="مشاهده سابقه خرید" style="ellipse;whiteSpace=wrap;html=1;fillColor=#f8cecc;strokeColor=#b85450;" vertex="1" parent="1">
          <mxGeometry x="292.5" y="398" width="100" height="67" as="geometry" />
        </mxCell>
        <mxCell id="oFaBCXIpXnut_KhmdDa9-5" value="اتحادیه صنفی" style="rounded=0;whiteSpace=wrap;html=1;" vertex="1" parent="1">
          <mxGeometry x="860" y="450" width="120" height="60" as="geometry" />
        </mxCell>
        <mxCell id="oFaBCXIpXnut_KhmdDa9-6" value="اداره بهداشت" style="rounded=0;whiteSpace=wrap;html=1;" vertex="1" parent="1">
          <mxGeometry x="860" y="540" width="120" height="60" as="geometry" />
        </mxCell>
        <mxCell id="oFaBCXIpXnut_KhmdDa9-7" value="مشاهده لیست رستوران ها" style="ellipse;whiteSpace=wrap;html=1;fillColor=#f8cecc;strokeColor=#b85450;" vertex="1" parent="1">
          <mxGeometry x="290" y="455" width="100" height="65" as="geometry" />
        </mxCell>
        <mxCell id="oFaBCXIpXnut_KhmdDa9-8" value="مشاهده اطلاعات رستوران" style="ellipse;whiteSpace=wrap;html=1;fillColor=#f8cecc;strokeColor=#b85450;" vertex="1" parent="1">
          <mxGeometry x="287.5" y="520" width="105" height="70" as="geometry" />
        </mxCell>
        <mxCell id="oFaBCXIpXnut_KhmdDa9-9" style="edgeStyle=orthogonalEdgeStyle;rounded=0;orthogonalLoop=1;jettySize=auto;html=1;exitX=0.5;exitY=1;exitDx=0;exitDy=0;" edge="1" parent="1" source="oFaBCXIpXnut_KhmdDa9-7" target="oFaBCXIpXnut_KhmdDa9-7">
          <mxGeometry relative="1" as="geometry" />
        </mxCell>
        <mxCell id="oFaBCXIpXnut_KhmdDa9-10" value="انتخاب از منوی رستوران" style="ellipse;whiteSpace=wrap;html=1;fillColor=#f8cecc;strokeColor=#b85450;" vertex="1" parent="1">
          <mxGeometry x="390" y="156.88" width="110" height="68.5" as="geometry" />
        </mxCell>
        <mxCell id="oFaBCXIpXnut_KhmdDa9-11" value="مشاهده امتیاز رستوران" style="ellipse;whiteSpace=wrap;html=1;fillColor=#f8cecc;strokeColor=#b85450;" vertex="1" parent="1">
          <mxGeometry x="400" y="225.38" width="105" height="67" as="geometry" />
        </mxCell>
        <mxCell id="oFaBCXIpXnut_KhmdDa9-12" value="ثبت سفارش" style="ellipse;whiteSpace=wrap;html=1;fillColor=#f8cecc;strokeColor=#b85450;" vertex="1" parent="1">
          <mxGeometry x="397.5" y="276.38" width="100" height="63" as="geometry" />
        </mxCell>
        <mxCell id="oFaBCXIpXnut_KhmdDa9-13" value="انتخاب نحوه پرداخت" style="ellipse;whiteSpace=wrap;html=1;fillColor=#f8cecc;strokeColor=#b85450;" vertex="1" parent="1">
          <mxGeometry x="390" y="328" width="100" height="63" as="geometry" />
        </mxCell>
        <mxCell id="oFaBCXIpXnut_KhmdDa9-14" value="&lt;div&gt;نمایان/ پنهان کردن &lt;br&gt;&lt;/div&gt;&lt;div&gt;امتیاز نیکوکاری&lt;br&gt;&lt;/div&gt;" style="ellipse;whiteSpace=wrap;html=1;fillColor=#f8cecc;strokeColor=#b85450;" vertex="1" parent="1">
          <mxGeometry x="390" y="378" width="100" height="63" as="geometry" />
        </mxCell>
        <mxCell id="oFaBCXIpXnut_KhmdDa9-15" value="اعمال تخفیف و پیشنهاد ویژه" style="ellipse;whiteSpace=wrap;html=1;fillColor=#f8cecc;strokeColor=#b85450;" vertex="1" parent="1">
          <mxGeometry x="400" y="428" width="95" height="70" as="geometry" />
        </mxCell>
        <mxCell id="oFaBCXIpXnut_KhmdDa9-16" value="نظرسنجی" style="ellipse;whiteSpace=wrap;html=1;fillColor=#f8cecc;strokeColor=#b85450;" vertex="1" parent="1">
          <mxGeometry x="395" y="480" width="95" height="70" as="geometry" />
        </mxCell>
        <mxCell id="oFaBCXIpXnut_KhmdDa9-17" value="مشاهده موجودی کیف پول" style="ellipse;whiteSpace=wrap;html=1;fillColor=#f8cecc;strokeColor=#b85450;" vertex="1" parent="1">
          <mxGeometry x="290" y="590" width="95" height="70" as="geometry" />
        </mxCell>
        <mxCell id="oFaBCXIpXnut_KhmdDa9-18" value="شارژ کیف پول" style="ellipse;whiteSpace=wrap;html=1;fillColor=#f8cecc;strokeColor=#b85450;" vertex="1" parent="1">
          <mxGeometry x="387.5" y="535" width="95" height="70" as="geometry" />
        </mxCell>
        <mxCell id="oFaBCXIpXnut_KhmdDa9-19" value="انتقادات و پیشنهادات" style="ellipse;whiteSpace=wrap;html=1;fillColor=#f8cecc;strokeColor=#b85450;" vertex="1" parent="1">
          <mxGeometry x="505" y="150" width="95" height="70" as="geometry" />
        </mxCell>
        <mxCell id="oFaBCXIpXnut_KhmdDa9-20" value="sign out" style="ellipse;whiteSpace=wrap;html=1;fillColor=#f8cecc;strokeColor=#b85450;" vertex="1" parent="1">
          <mxGeometry x="505" y="210" width="95" height="70" as="geometry" />
        </mxCell>
        <mxCell id="oFaBCXIpXnut_KhmdDa9-21" value="جستجو" style="ellipse;whiteSpace=wrap;html=1;fillColor=#f8cecc;strokeColor=#b85450;" vertex="1" parent="1">
          <mxGeometry x="502" y="260.5" width="95" height="70" as="geometry" />
        </mxCell>
        <mxCell id="oFaBCXIpXnut_KhmdDa9-22" value="راهنمای کاربر" style="ellipse;whiteSpace=wrap;html=1;fillColor=#f8cecc;strokeColor=#b85450;" vertex="1" parent="1">
          <mxGeometry x="502" y="317" width="95" height="70" as="geometry" />
        </mxCell>
        <mxCell id="oFaBCXIpXnut_KhmdDa9-23" value="مکان یابی رستوران ها" style="ellipse;whiteSpace=wrap;html=1;fillColor=#f8cecc;strokeColor=#b85450;" vertex="1" parent="1">
          <mxGeometry x="495" y="380" width="95" height="70" as="geometry" />
        </mxCell>
        <mxCell id="oFaBCXIpXnut_KhmdDa9-24" value="مشاهده تخفیف و پیشنهاد ویژه" style="ellipse;whiteSpace=wrap;html=1;fillColor=#f8cecc;strokeColor=#b85450;" vertex="1" parent="1">
          <mxGeometry x="387.5" y="590" width="95" height="70" as="geometry" />
        </mxCell>
        <mxCell id="oFaBCXIpXnut_KhmdDa9-25" value="" style="ellipse;whiteSpace=wrap;html=1;" vertex="1" parent="1">
          <mxGeometry x="500" y="441" width="95" height="57" as="geometry" />
        </mxCell>
      </root>
    </mxGraphModel>
  </diagram>
</mxfile>
